<svg version="1" xmlns="http://www.w3.org/2000/svg" width="933.333" height="933.333" viewBox="0 0 700.000000 700.000000"><path d="M293.5 2.1c-4.4.5-12.3 1.7-17.5 2.8-8.8 1.9-11.6 2.4-19.5 3.7-6.8 1-19.2 3.6-22.1 4.5-1.7.5-4.2 1.2-5.5 1.4-10.5 2.1-55.6 18.2-77.4 27.7-27.6 12.1-37.4 17.8-64 37.2-35.6 26-80.9 64.7-85.1 72.7-1.3 2.7-1.3 2.9 1.9 5.2 4.7 3.6 12.4 7.3 29 13.8 8.2 3.3 15.4 5.6 16 5.2.7-.4 5-4.4 9.7-8.9 23-22.3 27.2-26 41.7-37.1 12.4-9.4 30.2-21.4 40.3-27 3-1.7 8.4-4.7 11.8-6.7C177.2 82.8 222.4 65 247 59.5c.8-.2 5.8-1.3 11-2.5s10.4-2.4 11.5-2.6c2.3-.5 22.4-4 27.5-4.8 15.9-2.4 80.3-2.5 99-.1 1.4.1 5.4.6 9 1 3.6.3 7.2.8 8 1 .8.2 3.5.7 6 1 4.3.6 17.3 2.8 23.5 4 1.7.3 8.4 2 15 3.6 57 14.2 110 40 152 74.1 14.2 11.5 17 14 34.1 30.9 7.2 7.1 13.6 12.9 14.2 12.9 2.9 0 37.7-15.2 40.4-17.7 2.8-2.5 2.3-8.3-1.2-13.1-10.6-14.7-45.9-44.3-85-71.5-31.9-22.1-75.7-43.2-115.5-55.5-10.2-3.2-38.6-10.6-44-11.5-1.6-.3-5.5-1.1-8.5-1.7-3-.6-6.8-1.4-8.5-1.6-1.6-.3-4.1-.7-5.5-.9-1.4-.3-5.9-.7-10-1.1-4.1-.3-9.5-.8-12-1-8.4-.9-106.4-1.1-114.5-.3z"/><path d="M345.7 99.6c-.1.1-5.1.5-11.2.9-6 .4-11.7.8-12.5 1-.8.2-4.4.6-8 1-3.6.4-7.2.8-8 1-.8.1-4 .6-7 1-22.5 2.9-64.9 14.6-83.5 23-2.7 1.2-7.9 3.5-11.5 5.1-9.5 4.1-27 13.8-38.5 21.2-8.5 5.6-38 27.3-39.5 29.1-.3.4-4.1 3.6-8.5 7.1-4.4 3.6-9.1 7.5-10.5 8.7-1.4 1.3-2.8 2.3-3.2 2.3-1.8 0-.6 1.6 2 2.6 35.4 14.5 46.3 18.1 50.2 16.6 1.4-.5 10.4-6.8 20-13.9 24.8-18.3 38.2-26.2 63.5-37.3 5.9-2.6 23.4-8.3 33.5-10.9 28.8-7.6 48.9-9.9 81.5-9.6 12.7.2 23.9.5 25.1.8 1.1.3 4.5.8 7.5 1.1 7.1.8 11.8 1.5 14.9 2.1 14.7 2.9 20.1 4.1 29.5 6.7 20.7 5.7 49 17.3 62.9 25.7 3.4 2.1 6.9 4 7.8 4.4 4 1.5 29.1 19.5 45.9 32.9l3.6 2.9 7.4-3.4c4.1-1.9 15.4-6.9 25.3-11.2l17.8-7.9-2.3-1.9c-1.3-1-3.3-2.6-4.4-3.5-1.1-1-9.6-7.8-19-15.3-46.2-37-68.2-49.1-119.8-66.3-25.3-8.4-31.1-9.6-62.7-13.2-2.5-.2-5.4-.7-6.5-.9-4.9-1-40.9-2.6-41.8-1.9z"/><path d="M313.5 201.6c-13.2 1.6-27.7 5.9-46 13.4-6.9 2.8-29.9 14.3-34.5 17.1-8 4.9-21 14.2-21 14.9 0 .4 9.1 4.6 20.3 9.5 11.1 4.8 22.5 9.9 25.4 11.2 2.8 1.2 5.6 2.3 6.2 2.3.5 0 7.4-2.7 15.3-6.1 20.4-8.7 32.2-12.4 45.8-14.3 11.1-1.6 15.7-1.9 27-1.9 29.9 0 50.5 4.2 73.9 15.4 13.7 6.5 15.4 6.4 33.5-.7 20-7.9 26.6-12 26.6-16.7 0-2.7-3.7-6.8-9.1-10.3-11-6.9-47.8-23.7-61.9-28.2-6.4-2.1-14.2-3.5-25-4.7-6.2-.7-71.9-1.4-76.5-.9z"/><path d="M594 244.6c-5.8 2.4-11.4 4.9-12.5 5.4-1.1.5-11.2 4.8-22.5 9.5s-21.8 9.2-23.5 10c-1.6.7-7.5 3.2-13 5.5s-11.6 4.9-13.5 5.7c-1.9.8-4.4 1.9-5.5 2.3-22.8 9.6-81.3 34.9-88 38.1-20.7 9.8-42.7 28.7-55.1 47.4-3.2 4.7-6 8.5-6.4 8.5-.3 0-1.7-1.2-3-2.8-13.1-15.3-24.5-27.4-33.2-34.9-6.2-5.5-14.5-10.3-32.3-18.9-15.9-7.7-90.8-41.4-92-41.4-.3 0-2.7-1-5.3-2.1-5.6-2.5-7.1-3.2-23.2-9.9-6.9-2.9-15.4-6.5-19-8-9.9-4.3-34-13.6-38.8-15-4.7-1.5-5.1-1.3-5.7 2.1-1 5.2-1.8 69.4-1.8 145.9 0 109.2.9 138.8 4.9 151.2.8 2.7 18.4 11.1 77.4 37.1 11.8 5.2 23.8 10.5 26.5 11.7 2.8 1.2 6.4 2.8 8 3.5 34.6 15 90.6 41.9 104 50 6.2 3.8 23.3 20 22.2 21.1-.3.3-2.1-.3-4-1.5-6.1-3.8-64.5-25.2-162.7-59.6-40.2-14.1-79.6-28-94.6-33.3l-13.1-4.7-.2-32.5c-.8-97.8-1-121.7-1.6-177-.4-33.3-.8-61.8-.9-63.4-.1-2.7-.7-3.1-7.1-5.4-3.8-1.3-11.2-3.9-16.3-5.8-5.1-1.9-9.4-3.4-9.6-3.4-.2 0-.4 69.6-.4 154.6 0 114.5.3 154.6 1.2 154.9.6.2 8.8 2.8 18.1 5.8 9.4 3 28.5 9.2 42.5 13.7s32.9 10.6 42 13.5c9.1 3 30.7 9.9 48 15.6 17.3 5.6 43.2 14.1 57.5 18.9 52.7 17.9 60.5 20.9 66.2 26 9.4 8.3 26 13.9 41.8 14.2 19.4.4 33-3.4 48.6-13.5 13.9-8.9 61.4-25.9 173.4-62 7.7-2.5 24.1-7.8 36.5-11.8 12.4-4 22.7-7.4 23-7.4 2.2-.4 39.7-13 40.3-13.5 1.5-1.3 1.8-26.1 1.8-154.5 0-129-.2-151-1.9-152.7-1-1-8.8 1.5-24.9 7.9l-9.3 3.6-.2 137.5-.3 137.5-14.5 4.9c-8 2.7-24.8 8.5-37.5 13-18.8 6.5-74.3 25.8-88.5 30.8-1.9.6-11.1 3.9-20.5 7.2-58.3 20.5-97.5 33.4-104.5 34.5-3.2.5-3.3.4-2-1.3 4.5-5.7 21.3-16 48.6-29.7 11-5.5 20.4-10 47.9-22.7 2.2-1 11.4-5 20.5-9s18.8-8.2 21.5-9.5c2.8-1.2 14.2-6.2 25.5-11 20.7-8.7 22.8-9.7 31-13.2 2.5-1.1 12.9-5.5 23.2-9.9l18.7-7.9V392.2c.1-83.7-.2-152.2-.7-152.2-.4.1-5.4 2.1-11.2 4.6zm-22.9 48.6c.1.7.3 2.9.6 4.8 1 7.9.8 222.3-.2 223.6-.5.7-21.2 10.3-46 21.3-65.4 28.9-88.3 39.6-109.4 51.1-31 16.9-49.2 31.4-56.7 45.2-2.1 4-4.6 7.4-5.6 7.6-1.1.2-4-2.9-9-9.5-8.7-11.6-19.7-22.8-28-28.4-13.3-9-34.2-19.9-64.8-33.7-8.5-3.8-18.9-8.6-23-10.5-4.1-1.9-24.6-11-45.5-20.2s-40.9-18-44.4-19.6l-6.3-2.9.7-94.8c.4-52.1.8-99.7 1-105.7.1-6.1.3-15 .4-19.8l.1-8.9 3.2.5c5.3.8 31.9 10.4 42.5 15.2 1.7.8 3.4 1.5 3.8 1.5.3 0 3 1.1 5.8 2.4 2.9 1.3 11.6 5.1 19.4 8.4 29.8 12.9 47.5 21 72.3 33.2 33.1 16.4 37.3 19.3 57.7 39.1 6.1 6 11.4 10.9 11.8 10.9.3 0 7.2-5.5 15.3-12.3 15.7-13.2 22.8-18.6 30.5-23.3 2.7-1.6 6.3-3.8 8-4.8 5.9-3.6 46.2-23.4 55.2-27.2 5-2 9.5-4.1 10-4.5 1.9-1.3 52-22.8 66-28.2 7.7-3 14.9-5.8 16-6.2 1.1-.5 2.5-.9 3-1.1.6-.1 3.5-1.2 6.5-2.3 6.4-2.4 9-2.6 9.1-.9z"/><path d="M163.3 337.7c-1.6.6-1.7 8.3-.3 13.4 2.2 7.8 9.3 12.9 35.5 25.4 9.3 4.5 18.6 8.9 20.5 9.7 16.9 7.6 57.3 27.4 70 34.3 19.8 10.8 25.8 14.9 39.6 27.2 4 3.5 7.4 6.3 7.7 6.3 1.2 0-6.7-21.1-10.2-26.9-10.9-18.5-24.8-28.2-70.1-49-5.2-2.5-14.1-6.6-19.8-9.3-15.1-7.1-61.1-27.3-65.7-28.9-2.2-.7-4.4-1.6-5-2-.5-.3-1.6-.4-2.2-.2zM527.5 345.5c-7.9 2.3-41.1 15.6-63.5 25.3-60.8 26.4-76.5 37.5-89.3 62.7-2 3.8-3.9 8.2-4.2 9.7-1.5 6.2 5 4 17-5.6 9.6-7.7 44.4-26.9 64.2-35.4 2.7-1.1 8.6-3.8 13.3-6 9.7-4.5 19.1-8.8 27-12.2 11.1-4.9 40.7-20.1 46.7-24 6.2-4.1 6.6-4.6 7.8-10.6 1.3-6.8-5-8.1-19-3.9zM534.5 406.2c-10.5 4.2-24.9 10.2-32.7 13.7-2.6 1.1-5 2.1-5.2 2.1-.2 0-10.9 4.7-23.8 10.4-55.4 24.7-77 37.5-90.6 53.9-3.3 4.1-7.9 13.3-10.1 20.5-3.1 10-1.7 9.6 19.4-5.5 10.3-7.3 22.4-14.3 46-26.2 17.4-8.9 23.7-11.9 42.5-20.4 3.6-1.6 8.9-4 11.8-5.3 2.9-1.3 5.4-2.4 5.6-2.4.2 0 4.2-1.7 8.8-3.9 4.5-2.1 11-5.1 14.3-6.5 9.8-4.4 21.1-11.6 22.8-14.6 1-1.5 1.7-4.1 1.7-5.7 0-2.9-3.2-10.7-4.6-11.5-.5-.3-3.1.4-5.9 1.4zM161.3 405.8c-.6.4-1.7 2-2.3 3.6-.9 2.4-.7 3.6 1.1 6.9 5.2 10 18.8 18.2 62.4 37.7 59.2 26.4 79 37.2 97.7 53 5.5 4.7 11.2 9.4 12.5 10.4l2.5 1.9-.7-4.4c-3.3-19.9-11.1-30-36-47.1-13.5-9.3-41.1-23.8-68-35.7-7.7-3.4-14.7-6.6-15.6-7.1-2.6-1.4-40.1-17.2-44.3-18.6-4.3-1.6-7.5-1.8-9.3-.6zM162.5 473.2c-2.3 10.8-.4 15.4 8.7 21.5 7.6 5 15.8 9.1 43.3 21.6 11.6 5.2 24.6 11.2 29 13.2 13.4 6.2 41.6 20.6 48.4 24.6 3.4 2.2 6.6 3.9 6.9 3.9.9 0 13.9 8.7 20.7 13.9 12.9 9.9 15.5 11 15.5 6.7 0-5.5-12.9-25.3-23.6-36-4.8-4.8-10.1-9.3-13.4-11.3-18.8-11.5-127.3-60.3-134-60.3-.5 0-1.2 1-1.5 2.2zM525 476.9c-64.5 26-119.1 52.2-130 62.3-12.9 12-28.6 36.6-26.1 40.7.6.9 2.8-.2 7.7-3.5 23.1-16 30-20 62.9-36.3 21.2-10.5 33.7-16.5 50-23.8 5.5-2.5 12-5.4 14.5-6.5 9.6-4.4 28.3-13.9 31.3-16 9.5-6.4 11.3-10.8 7.7-18.3-1.2-2.5-2.5-4.5-2.8-4.5-.4 0-7.2 2.7-15.2 5.9z"/></svg>