<svg version="1" xmlns="http://www.w3.org/2000/svg" width="221.333" height="221.333" viewBox="0 0 166.000000 166.000000"><path d="M69.5 5.1c-1.6.5-4.5 1.1-6.3 1.4-5.1.8-17.7 6.1-24.6 10.3C32.7 20.4 15 37 15 39c0 .5 2.1 1.9 4.6 3l4.6 2.1 5.4-6C38.4 28.4 52.4 20 65 17c7.3-1.8 8.1-1.9 18.2-2 19.9-.2 40 8.6 53.3 23.2l5.5 6.2 4.6-2.2c4.1-2 4.4-2.4 3.3-4.5-2.1-3.9-14.8-15.6-21.7-20.1-10.1-6.4-18-9.7-29.7-12.2-4.7-1-25.7-1.2-29-.3z"/><path d="M77 27.1c-14.3 1.7-26 7.1-35.9 16.5l-6.5 6.1 4.6 2.2c2.6 1.1 5 2.1 5.3 2.1.4 0 2.8-1.9 5.4-4.3 18.4-16.5 47.5-16.2 66.7.7l4.9 4.4 4.9-2.5 4.9-2.5-6.5-6.1c-3.6-3.4-8.9-7.5-11.9-9.1-4.8-2.6-13.7-6.1-16.4-6.5-.5 0-2.3-.3-4-.6-6.5-1-9.2-1.1-15.5-.4z"/><path d="M73.4 49.9c-4.3 1.1-11.3 4.6-14.9 7.5l-2.9 2.4 5.1 2.6 5.2 2.6 4.8-2.4c8.1-4.1 19.7-3.6 26.9 1 2 1.4 2.7 1.3 6.8-.7 5-2.3 5.6-3.4 2.9-5.6-2.5-1.9-11.1-6.4-13.7-7-3.7-1-17-1.2-20.2-.4z"/><path d="M34.5 58.8c-.3.3-.5 15.5-.5 33.7 0 25.4.3 33.5 1.3 34.2.6.6 9.8 5.4 20.3 10.7 10.6 5.3 20.6 11 22.3 12.6 3 2.9 4.4 5.3 1.9 3.2-.7-.5-12.7-5.6-26.5-11.2L28 131.7l-.2-30.9-.3-31-3.2-1.3-3.3-1.4v69.4l26.5 9.9c14.6 5.4 26.5 10.2 26.5 10.7s1.4 1.6 3.2 2.5c4.3 2.2 11.1 1.4 14.6-1.9 1.7-1.5 12.1-5.9 27.7-11.7 13.8-5.1 25.1-9.4 25.3-9.5.4-.3.4-68.6 0-69-.2-.2-1.8.3-3.6 1.2l-3.2 1.5v61.6l-13.2 5.3c-7.3 2.9-19 7.6-26 10.5-7.1 2.9-12.8 5-12.8 4.6.1-1.8 11.2-8.5 27.8-16.7l18.2-9V58.1l-6.7 3.3c-17.9 8.7-30.9 15.2-31.8 15.9-4.2 3.2-6.6 5.7-8.3 8.5l-1.9 3.3-3-4c-1.6-2.2-4.2-5-5.8-6.2-3.6-2.9-39.3-20.8-40-20.1zm44.5 32l3.8 4.3 4.9-4.8c3.5-3.5 9.1-7 21-13 8.9-4.6 16.4-7.9 16.6-7.5.2.4.3 12.2.3 26.2l-.1 25.5-16.4 8.4c-16.1 8.3-23.2 13.4-25 18.3-.7 2-.9 1.9-2.9-1.3-3.5-5.7-6.4-7.8-23.9-16.8l-16.8-8.6.1-25c.1-13.8.2-25.6.3-26.3.1-.8 6.5 2 17.2 7.5 13.3 6.8 18 9.7 20.9 13.1z"/><path d="M46.2 82.7c.3 2.4 1.9 3.6 13.2 9.5 7.1 3.7 14.7 8.4 16.8 10.4l3.8 3.8-.9-3.2c-1.2-3.9-3-6.5-6.4-9.2-2.3-1.8-25.2-14-26.4-14-.2 0-.3 1.2-.1 2.7zM108 85.8c-14.4 7.1-17.5 9.4-20.1 14.4-2.6 5.2-1.8 5.9 2.3 1.9 1.8-1.8 9.2-6.2 16.5-9.9 7.4-3.7 13.4-7.4 13.6-8.3 1.1-4-1.1-3.6-12.3 1.9zM45.7 95.7c-1.3 2.2 1.8 5.2 9.4 9.1 12.9 6.5 18.2 9.7 21.5 13.1l3.1 3.1-.5-2.9c-.7-5-7.2-10.4-20.1-17-12.7-6.5-12.7-6.5-13.4-5.4zM107.5 100.7c-15.8 8-19.6 11.3-21 18.5-.3 1.1 1 .4 3.6-2.1 2.3-2.1 9.8-6.8 17.3-10.6 12.1-6.1 13.2-6.9 12.8-9.1-.2-1.3-.7-2.4-1.1-2.3-.3 0-5.5 2.5-11.6 5.6zM46 112.4c0 2.2 1.7 3.4 13 9.2 7.1 3.6 14.5 8.2 16.5 10.1 2 1.9 3.8 3.3 4 3.1 1-1-3.6-8.7-6.8-11.1-3.1-2.4-24.8-13.7-26.2-13.7-.3 0-.5 1.1-.5 2.4zM106.6 116.1c-6.6 3.2-13.3 7.1-14.9 8.7-2.7 2.5-6.3 8.9-5.5 9.8.2.2 1.8-1.1 3.6-2.7 1.8-1.7 9.5-6.3 17-10.3 12-6.2 13.7-7.4 13.4-9.4-.2-1.2-.6-2.2-1-2.1-.4 0-6.1 2.7-12.6 6z"/></svg>