<?xml version="1.0" encoding="UTF-8" standalone="no"?>
<svg
   xmlns:dc="http://purl.org/dc/elements/1.1/"
   xmlns:cc="http://creativecommons.org/ns#"
   xmlns:rdf="http://www.w3.org/1999/02/22-rdf-syntax-ns#"
   xmlns:svg="http://www.w3.org/2000/svg"
   xmlns="http://www.w3.org/2000/svg"
   xmlns:sodipodi="http://sodipodi.sourceforge.net/DTD/sodipodi-0.dtd"
   xmlns:inkscape="http://www.inkscape.org/namespaces/inkscape"
   version="1"
   width="512"
   height="512"
   viewBox="0 0 512 512"
   id="svg3779"
   sodipodi:docname="logo.svg"
   inkscape:version="0.92.3 (2405546, 2018-03-11)"
   inkscape:export-filename="C:\Users\jovan\OneDrive\Documents\GitHub\kingdomcrc.github.io\assets\images\logo.500x577.png"
   inkscape:export-xdpi="113.39883"
   inkscape:export-ydpi="113.39883">
  <title
     id="title4656">CRC Logo</title>
  <metadata
     id="metadata3785">
    <rdf:RDF>
      <cc:Work
         rdf:about="">
        <dc:format>image/svg+xml</dc:format>
        <dc:type
           rdf:resource="http://purl.org/dc/dcmitype/StillImage" />
        <dc:title>CRC Logo</dc:title>
        <cc:license
           rdf:resource="http://creativecommons.org/licenses/by/4.0/" />
      </cc:Work>
      <cc:License
         rdf:about="http://creativecommons.org/licenses/by/4.0/">
        <cc:permits
           rdf:resource="http://creativecommons.org/ns#Reproduction" />
        <cc:permits
           rdf:resource="http://creativecommons.org/ns#Distribution" />
        <cc:requires
           rdf:resource="http://creativecommons.org/ns#Notice" />
        <cc:requires
           rdf:resource="http://creativecommons.org/ns#Attribution" />
        <cc:permits
           rdf:resource="http://creativecommons.org/ns#DerivativeWorks" />
      </cc:License>
    </rdf:RDF>
  </metadata>
  <defs
     id="defs3783" />
  <sodipodi:namedview
     pagecolor="#ffffff"
     bordercolor="#666666"
     borderopacity="1"
     objecttolerance="10"
     gridtolerance="10000"
     guidetolerance="10"
     inkscape:pageopacity="0"
     inkscape:pageshadow="2"
     inkscape:window-width="2560"
     inkscape:window-height="1017"
     id="namedview3781"
     showgrid="false"
     inkscape:pagecheckerboard="true"
     viewbox-width="500"
     scale-x="0.4"
     inkscape:zoom="1.0662667"
     inkscape:cx="113.24114"
     inkscape:cy="288.43213"
     inkscape:window-x="-8"
     inkscape:window-y="-8"
     inkscape:window-maximized="1"
     inkscape:current-layer="g3792" />
  <g
     id="g3792"
     transform="matrix(1.4743401,0,0,1.2619998,-21.795243,0.2538357)"
     style="fill:#0ab878;fill-opacity:1">
    <g
       id="g4663"
       transform="matrix(2.5638982,0,0,2.5831813,-23.102859,-11.404707)"
       inkscape:export-filename="C:\Users\jovan\OneDrive\Documents\GitHub\kingdomcrc.github.io\assets\images\logo.194x192.png"
       inkscape:export-xdpi="93.438248"
       inkscape:export-ydpi="93.438248">
      <path
         style="fill:#0ab878;fill-opacity:1"
         inkscape:connector-curvature="0"
         d="M 69.5,5.1 C 67.9,5.6 65,6.2 63.2,6.5 58.1,7.3 45.5,12.6 38.6,16.8 32.7,20.4 15,37 15,39 c 0,0.5 2.1,1.9 4.6,3 l 4.6,2.1 5.4,-6 C 38.4,28.4 52.4,20 65,17 c 7.3,-1.8 8.1,-1.9 18.2,-2 19.9,-0.2 40,8.6 53.3,23.2 l 5.5,6.2 4.6,-2.2 c 4.1,-2 4.4,-2.4 3.3,-4.5 C 147.8,33.8 135.1,22.1 128.2,17.6 118.1,11.2 110.2,7.9 98.5,5.4 93.8,4.4 72.8,4.2 69.5,5.1 Z"
         id="path3769" />
      <path
         style="fill:#0ab878;fill-opacity:1"
         inkscape:connector-curvature="0"
         d="M 77,27.1 C 62.7,28.8 51,34.2 41.1,43.6 l -6.5,6.1 4.6,2.2 c 2.6,1.1 5,2.1 5.3,2.1 0.4,0 2.8,-1.9 5.4,-4.3 18.4,-16.5 47.5,-16.2 66.7,0.7 l 4.9,4.4 4.9,-2.5 4.9,-2.5 -6.5,-6.1 C 121.2,40.3 115.9,36.2 112.9,34.6 108.1,32 99.2,28.5 96.5,28.1 96,28.1 94.2,27.8 92.5,27.5 86,26.5 83.3,26.4 77,27.1 Z"
         id="path3771" />
      <path
         style="fill:#0ab878;fill-opacity:1"
         inkscape:connector-curvature="0"
         d="M 73.4,49.9 C 69.1,51 62.1,54.5 58.5,57.4 l -2.9,2.4 5.1,2.6 5.2,2.6 4.8,-2.4 c 8.1,-4.1 19.7,-3.6 26.9,1 2,1.4 2.7,1.3 6.8,-0.7 5,-2.3 5.6,-3.4 2.9,-5.6 -2.5,-1.9 -11.1,-6.4 -13.7,-7 -3.7,-1 -17,-1.2 -20.2,-0.4 z"
         id="path3773" />
      <path
         style="fill:#0ab878;fill-opacity:1"
         inkscape:connector-curvature="0"
         d="M 34.5,58.8 C 34.2,59.1 34,74.3 34,92.5 c 0,25.4 0.3,33.5 1.3,34.2 0.6,0.6 9.8,5.4 20.3,10.7 10.6,5.3 20.6,11 22.3,12.6 3,2.9 4.4,5.3 1.9,3.2 C 79.1,152.7 67.1,147.6 53.3,142 L 28,131.7 27.8,100.8 27.5,69.8 24.3,68.5 21,67.1 v 69.4 l 26.5,9.9 c 14.6,5.4 26.5,10.2 26.5,10.7 0,0.5 1.4,1.6 3.2,2.5 4.3,2.2 11.1,1.4 14.6,-1.9 1.7,-1.5 12.1,-5.9 27.7,-11.7 13.8,-5.1 25.1,-9.4 25.3,-9.5 0.4,-0.3 0.4,-68.6 0,-69 -0.2,-0.2 -1.8,0.3 -3.6,1.2 l -3.2,1.5 v 61.6 l -13.2,5.3 c -7.3,2.9 -19,7.6 -26,10.5 -7.1,2.9 -12.8,5 -12.8,4.6 0.1,-1.8 11.2,-8.5 27.8,-16.7 l 18.2,-9 V 58.1 l -6.7,3.3 c -17.9,8.7 -30.9,15.2 -31.8,15.9 -4.2,3.2 -6.6,5.7 -8.3,8.5 l -1.9,3.3 -3,-4 C 78.7,82.9 76.1,80.1 74.5,78.9 70.9,76 35.2,58.1 34.5,58.8 Z m 44.5,32 3.8,4.3 4.9,-4.8 c 3.5,-3.5 9.1,-7 21,-13 8.9,-4.6 16.4,-7.9 16.6,-7.5 0.2,0.4 0.3,12.2 0.3,26.2 l -0.1,25.5 -16.4,8.4 c -16.1,8.3 -23.2,13.4 -25,18.3 -0.7,2 -0.9,1.9 -2.9,-1.3 -3.5,-5.7 -6.4,-7.8 -23.9,-16.8 l -16.8,-8.6 0.1,-25 c 0.1,-13.8 0.2,-25.6 0.3,-26.3 0.1,-0.8 6.5,2 17.2,7.5 13.3,6.8 18,9.7 20.9,13.1 z"
         id="path3775" />
      <path
         style="fill:#0ab878;fill-opacity:1"
         inkscape:connector-curvature="0"
         d="m 46.2,82.7 c 0.3,2.4 1.9,3.6 13.2,9.5 7.1,3.7 14.7,8.4 16.8,10.4 l 3.8,3.8 -0.9,-3.2 C 77.9,99.3 76.1,96.7 72.7,94 70.4,92.2 47.5,80 46.3,80 46.1,80 46,81.2 46.2,82.7 Z m 61.8,3.1 c -14.4,7.1 -17.5,9.4 -20.1,14.4 -2.6,5.2 -1.8,5.9 2.3,1.9 1.8,-1.8 9.2,-6.2 16.5,-9.9 7.4,-3.7 13.4,-7.4 13.6,-8.3 1.1,-4 -1.1,-3.6 -12.3,1.9 z m -62.3,9.9 c -1.3,2.2 1.8,5.2 9.4,9.1 12.9,6.5 18.2,9.7 21.5,13.1 l 3.1,3.1 -0.5,-2.9 C 78.5,113.1 72,107.7 59.1,101.1 46.4,94.6 46.4,94.6 45.7,95.7 Z m 61.8,5 c -15.8,8 -19.6,11.3 -21,18.5 -0.3,1.1 1,0.4 3.6,-2.1 2.3,-2.1 9.8,-6.8 17.3,-10.6 12.1,-6.1 13.2,-6.9 12.8,-9.1 -0.2,-1.3 -0.7,-2.4 -1.1,-2.3 -0.3,0 -5.5,2.5 -11.6,5.6 z M 46,112.4 c 0,2.2 1.7,3.4 13,9.2 7.1,3.6 14.5,8.2 16.5,10.1 2,1.9 3.8,3.3 4,3.1 1,-1 -3.6,-8.7 -6.8,-11.1 C 69.6,121.3 47.9,110 46.5,110 c -0.3,0 -0.5,1.1 -0.5,2.4 z m 60.6,3.7 c -6.6,3.2 -13.3,7.1 -14.9,8.7 -2.7,2.5 -6.3,8.9 -5.5,9.8 0.2,0.2 1.8,-1.1 3.6,-2.7 1.8,-1.7 9.5,-6.3 17,-10.3 12,-6.2 13.7,-7.4 13.4,-9.4 -0.2,-1.2 -0.6,-2.2 -1,-2.1 -0.4,0 -6.1,2.7 -12.6,6 z"
         id="path3777" />
    </g>
  </g>
</svg>
